<?xml version="1.0" encoding="utf-8"?>
<svg version="1.1" xmlns:xlink="http://www.w3.org/1999/xlink" width="230px" height="167px" xmlns="http://www.w3.org/2000/svg">
  <g transform="matrix(1 0 0 1 -770 -329 )">
    <path d="M 771 334  A 4 4 0 0 1 775 330 L 995 330  A 4 4 0 0 1 999 334 L 999 491  A 4 4 0 0 1 995 495 L 775 495  A 4 4 0 0 1 771 491 L 771 334  Z " fill-rule="nonzero" fill="#ffffff" stroke="none" />
    <path d="M 770.5 334  A 4.5 4.5 0 0 1 775 329.5 L 995 329.5  A 4.5 4.5 0 0 1 999.5 334 L 999.5 491  A 4.5 4.5 0 0 1 995 495.5 L 775 495.5  A 4.5 4.5 0 0 1 770.5 491 L 770.5 334  Z " stroke-width="1" stroke-dasharray="9,4" stroke="#d7d7d7" fill="none" stroke-dashoffset="0.5" />
  </g>
</svg>